<svg width="20" height="19" viewBox="0 0 20 19" fill="none" xmlns="http://www.w3.org/2000/svg">
<path d="M10.1504 10.0938C10.1504 10.2512 10.0878 10.4022 9.97649 10.5136C9.86514 10.6249 9.71411 10.6875 9.55664 10.6875C9.39917 10.6875 9.24815 10.6249 9.1368 10.5136C9.02545 10.4022 8.96289 10.2512 8.96289 10.0938C8.96289 9.93628 9.02545 9.78526 9.1368 9.67391C9.24815 9.56256 9.39917 9.5 9.55664 9.5C9.71411 9.5 9.86514 9.56256 9.97649 9.67391C10.0878 9.78526 10.1504 9.93628 10.1504 10.0938ZM5.99414 12.4688C6.15161 12.4688 6.30264 12.4062 6.41399 12.2948C6.52533 12.1835 6.58789 12.0325 6.58789 11.875C6.58789 11.7175 6.52533 11.5665 6.41399 11.4552C6.30264 11.3438 6.15161 11.2812 5.99414 11.2812C5.83667 11.2812 5.68565 11.3438 5.5743 11.4552C5.46295 11.5665 5.40039 11.7175 5.40039 11.875C5.40039 12.0325 5.46295 12.1835 5.5743 12.2948C5.68565 12.4062 5.83667 12.4688 5.99414 12.4688ZM6.58789 13.6562C6.58789 13.8137 6.52533 13.9647 6.41399 14.0761C6.30264 14.1874 6.15161 14.25 5.99414 14.25C5.83667 14.25 5.68565 14.1874 5.5743 14.0761C5.46295 13.9647 5.40039 13.8137 5.40039 13.6562C5.40039 13.4988 5.46295 13.3478 5.5743 13.2364C5.68565 13.1251 5.83667 13.0625 5.99414 13.0625C6.15161 13.0625 6.30264 13.1251 6.41399 13.2364C6.52533 13.3478 6.58789 13.4988 6.58789 13.6562ZM7.77539 12.4688C7.93286 12.4688 8.08389 12.4062 8.19524 12.2948C8.30658 12.1835 8.36914 12.0325 8.36914 11.875C8.36914 11.7175 8.30658 11.5665 8.19524 11.4552C8.08389 11.3438 7.93286 11.2812 7.77539 11.2812C7.61792 11.2812 7.4669 11.3438 7.35555 11.4552C7.2442 11.5665 7.18164 11.7175 7.18164 11.875C7.18164 12.0325 7.2442 12.1835 7.35555 12.2948C7.4669 12.4062 7.61792 12.4688 7.77539 12.4688ZM8.36914 13.6562C8.36914 13.8137 8.30658 13.9647 8.19524 14.0761C8.08389 14.1874 7.93286 14.25 7.77539 14.25C7.61792 14.25 7.4669 14.1874 7.35555 14.0761C7.2442 13.9647 7.18164 13.8137 7.18164 13.6562C7.18164 13.4988 7.2442 13.3478 7.35555 13.2364C7.4669 13.1251 7.61792 13.0625 7.77539 13.0625C7.93286 13.0625 8.08389 13.1251 8.19524 13.2364C8.30658 13.3478 8.36914 13.4988 8.36914 13.6562ZM9.55664 12.4688C9.71411 12.4688 9.86514 12.4062 9.97649 12.2948C10.0878 12.1835 10.1504 12.0325 10.1504 11.875C10.1504 11.7175 10.0878 11.5665 9.97649 11.4552C9.86514 11.3438 9.71411 11.2812 9.55664 11.2812C9.39917 11.2812 9.24815 11.3438 9.1368 11.4552C9.02545 11.5665 8.96289 11.7175 8.96289 11.875C8.96289 12.0325 9.02545 12.1835 9.1368 12.2948C9.24815 12.4062 9.39917 12.4688 9.55664 12.4688ZM10.1504 13.6562C10.1504 13.8137 10.0878 13.9647 9.97649 14.0761C9.86514 14.1874 9.71411 14.25 9.55664 14.25C9.39917 14.25 9.24815 14.1874 9.1368 14.0761C9.02545 13.9647 8.96289 13.8137 8.96289 13.6562C8.96289 13.4988 9.02545 13.3478 9.1368 13.2364C9.24815 13.1251 9.39917 13.0625 9.55664 13.0625C9.71411 13.0625 9.86514 13.1251 9.97649 13.2364C10.0878 13.3478 10.1504 13.4988 10.1504 13.6562ZM11.3379 12.4688C11.4954 12.4688 11.6464 12.4062 11.7577 12.2948C11.8691 12.1835 11.9316 12.0325 11.9316 11.875C11.9316 11.7175 11.8691 11.5665 11.7577 11.4552C11.6464 11.3438 11.4954 11.2812 11.3379 11.2812C11.1804 11.2812 11.0294 11.3438 10.918 11.4552C10.8067 11.5665 10.7441 11.7175 10.7441 11.875C10.7441 12.0325 10.8067 12.1835 10.918 12.2948C11.0294 12.4062 11.1804 12.4688 11.3379 12.4688ZM11.9316 13.6562C11.9316 13.8137 11.8691 13.9647 11.7577 14.0761C11.6464 14.1874 11.4954 14.25 11.3379 14.25C11.1804 14.25 11.0294 14.1874 10.918 14.0761C10.8067 13.9647 10.7441 13.8137 10.7441 13.6562C10.7441 13.4988 10.8067 13.3478 10.918 13.2364C11.0294 13.1251 11.1804 13.0625 11.3379 13.0625C11.4954 13.0625 11.6464 13.1251 11.7577 13.2364C11.8691 13.3478 11.9316 13.4988 11.9316 13.6562ZM13.1191 12.4688C13.2766 12.4688 13.4276 12.4062 13.539 12.2948C13.6503 12.1835 13.7129 12.0325 13.7129 11.875C13.7129 11.7175 13.6503 11.5665 13.539 11.4552C13.4276 11.3438 13.2766 11.2812 13.1191 11.2812C12.9617 11.2812 12.8106 11.3438 12.6993 11.4552C12.5879 11.5665 12.5254 11.7175 12.5254 11.875C12.5254 12.0325 12.5879 12.1835 12.6993 12.2948C12.8106 12.4062 12.9617 12.4688 13.1191 12.4688ZM11.9316 10.0938C11.9316 10.2512 11.8691 10.4022 11.7577 10.5136C11.6464 10.6249 11.4954 10.6875 11.3379 10.6875C11.1804 10.6875 11.0294 10.6249 10.918 10.5136C10.8067 10.4022 10.7441 10.2512 10.7441 10.0938C10.7441 9.93628 10.8067 9.78526 10.918 9.67391C11.0294 9.56256 11.1804 9.5 11.3379 9.5C11.4954 9.5 11.6464 9.56256 11.7577 9.67391C11.8691 9.78526 11.9316 9.93628 11.9316 10.0938ZM13.1191 10.6875C13.2766 10.6875 13.4276 10.6249 13.539 10.5136C13.6503 10.4022 13.7129 10.2512 13.7129 10.0938C13.7129 9.93628 13.6503 9.78526 13.539 9.67391C13.4276 9.56256 13.2766 9.5 13.1191 9.5C12.9617 9.5 12.8106 9.56256 12.6993 9.67391C12.5879 9.78526 12.5254 9.93628 12.5254 10.0938C12.5254 10.2512 12.5879 10.4022 12.6993 10.5136C12.8106 10.6249 12.9617 10.6875 13.1191 10.6875Z" fill="#3B96FF"/>
<path fill-rule="evenodd" clip-rule="evenodd" d="M5.40039 1.78125C5.55786 1.78125 5.70889 1.84381 5.82024 1.95516C5.93159 2.06651 5.99414 2.21753 5.99414 2.375V3.5625H13.1191V2.375C13.1191 2.21753 13.1817 2.06651 13.293 1.95516C13.4044 1.84381 13.5554 1.78125 13.7129 1.78125C13.8704 1.78125 14.0214 1.84381 14.1327 1.95516C14.2441 2.06651 14.3066 2.21753 14.3066 2.375V3.5625H14.9004C15.5303 3.5625 16.1344 3.81272 16.5798 4.25812C17.0252 4.70352 17.2754 5.30761 17.2754 5.9375V14.8438C17.2754 15.4736 17.0252 16.0777 16.5798 16.5231C16.1344 16.9685 15.5303 17.2188 14.9004 17.2188H4.21289C3.583 17.2188 2.97891 16.9685 2.53351 16.5231C2.08811 16.0777 1.83789 15.4736 1.83789 14.8438V5.9375C1.83789 5.30761 2.08811 4.70352 2.53351 4.25812C2.97891 3.81272 3.583 3.5625 4.21289 3.5625H4.80664V2.375C4.80664 2.21753 4.8692 2.06651 4.98055 1.95516C5.0919 1.84381 5.24292 1.78125 5.40039 1.78125ZM16.0879 8.90625C16.0879 8.59131 15.9628 8.28926 15.7401 8.06656C15.5174 7.84386 15.2153 7.71875 14.9004 7.71875H4.21289C3.89795 7.71875 3.5959 7.84386 3.3732 8.06656C3.1505 8.28926 3.02539 8.59131 3.02539 8.90625V14.8438C3.02539 15.1587 3.1505 15.4607 3.3732 15.6834C3.5959 15.9061 3.89795 16.0312 4.21289 16.0312H14.9004C15.2153 16.0312 15.5174 15.9061 15.7401 15.6834C15.9628 15.4607 16.0879 15.1587 16.0879 14.8438V8.90625Z" fill="#3B96FF"/>
</svg>
