<svg width="20" height="19" viewBox="0 0 20 19" fill="none" xmlns="http://www.w3.org/2000/svg">
<path fill-rule="evenodd" clip-rule="evenodd" d="M15.1752 3.88141C14.9276 3.63374 14.6337 3.43727 14.3101 3.30323C13.9866 3.16919 13.6398 3.1002 13.2896 3.1002C12.9394 3.1002 12.5926 3.16919 12.269 3.30323C11.9455 3.43727 11.6515 3.63374 11.4039 3.88141L8.20425 7.08106C7.90239 7.38266 7.67732 7.7523 7.54796 8.15893C7.41859 8.56555 7.3887 8.99729 7.4608 9.41786C7.53291 9.83844 7.7049 10.2356 7.96232 10.5759C8.21975 10.9162 8.55509 11.1897 8.94018 11.3736C9.0634 11.4371 9.15706 11.5461 9.2013 11.6775C9.24553 11.8088 9.23686 11.9523 9.17713 12.0774C9.1174 12.2025 9.0113 12.2994 8.88132 12.3476C8.75135 12.3958 8.6077 12.3915 8.48085 12.3356C7.94196 12.0782 7.4727 11.6952 7.11247 11.2189C6.75224 10.7426 6.51155 10.1868 6.41062 9.59815C6.30968 9.00953 6.35145 8.40529 6.5324 7.83616C6.71336 7.26702 7.02822 6.74961 7.45056 6.32737L10.6502 3.12771C10.9952 2.77372 11.407 2.49175 11.8618 2.29817C12.3166 2.1046 12.8053 2.00328 13.2996 2.00008C13.7938 1.99688 14.2838 2.09188 14.7411 2.27955C15.1983 2.46722 15.6138 2.74384 15.9633 3.09335C16.3128 3.44286 16.5894 3.8583 16.7771 4.31556C16.9648 4.77282 17.0598 5.2628 17.0566 5.75707C17.0534 6.25134 16.952 6.74005 16.7585 7.19485C16.5649 7.64965 16.2829 8.06147 15.9289 8.40643L14.6796 9.65572C14.6308 9.70811 14.5719 9.75013 14.5065 9.77928C14.4411 9.80843 14.3705 9.8241 14.2989 9.82536C14.2273 9.82663 14.1562 9.81346 14.0898 9.78663C14.0234 9.75981 13.963 9.71989 13.9124 9.66925C13.8618 9.61861 13.8218 9.5583 13.795 9.49189C13.7682 9.42549 13.755 9.35437 13.7563 9.28276C13.7576 9.21116 13.7732 9.14055 13.8024 9.07513C13.8315 9.00972 13.8736 8.95084 13.9259 8.90202L15.1752 7.65273C15.4229 7.40513 15.6194 7.11116 15.7534 6.78761C15.8875 6.46407 15.9564 6.11729 15.9564 5.76707C15.9564 5.41686 15.8875 5.07008 15.7534 4.74653C15.6194 4.42299 15.4229 4.12902 15.1752 3.88141ZM9.9214 6.91539C9.98243 6.78784 10.0916 6.68974 10.2249 6.64267C10.3583 6.5956 10.5049 6.60342 10.6324 6.6644C11.1713 6.92181 11.6406 7.30476 12.0008 7.78109C12.361 8.25742 12.6017 8.81323 12.7027 9.40185C12.8036 9.99047 12.7618 10.5947 12.5809 11.1638C12.3999 11.733 12.0851 12.2504 11.6627 12.6726L8.46307 15.8723C8.11811 16.2263 7.70629 16.5083 7.25149 16.7018C6.79669 16.8954 6.30798 16.9967 5.81371 16.9999C5.31944 17.0031 4.82946 16.9081 4.3722 16.7204C3.91494 16.5328 3.4995 16.2562 3.14999 15.9067C2.80048 15.5571 2.52387 15.1417 2.33619 14.6844C2.14852 14.2272 2.05352 13.7372 2.05672 13.2429C2.05992 12.7487 2.16124 12.2599 2.35481 11.8052C2.54839 11.3504 2.83036 10.9385 3.18436 10.5936L4.43364 9.34428C4.48246 9.29189 4.54134 9.24987 4.60675 9.22072C4.67217 9.19157 4.74278 9.1759 4.81438 9.17464C4.88599 9.17337 4.95711 9.18655 5.02351 9.21337C5.08992 9.24019 5.15024 9.28011 5.20087 9.33075C5.25151 9.38139 5.29143 9.44171 5.31825 9.50811C5.34508 9.57451 5.35825 9.64563 5.35698 9.71724C5.35572 9.78884 5.34005 9.85946 5.3109 9.92487C5.28175 9.99028 5.23973 10.0492 5.18734 10.098L3.93805 11.3473C3.69042 11.5949 3.49399 11.8889 3.35998 12.2124C3.22596 12.536 3.15698 12.8827 3.15698 13.2329C3.15698 13.5831 3.22596 13.9299 3.35998 14.2534C3.49399 14.577 3.69042 14.871 3.93805 15.1186C4.18568 15.3662 4.47966 15.5626 4.8032 15.6967C5.12674 15.8307 5.47351 15.8997 5.82371 15.8997C6.17391 15.8997 6.52068 15.8307 6.84423 15.6967C7.16777 15.5626 7.46175 15.3662 7.70937 15.1186L10.909 11.9189C11.2109 11.6173 11.436 11.2477 11.5653 10.8411C11.6947 10.4344 11.7246 10.0027 11.6525 9.58214C11.5804 9.16157 11.4084 8.76444 11.151 8.42413C10.8935 8.08381 10.5582 7.81025 10.1731 7.62643C10.1099 7.59627 10.0532 7.55396 10.0064 7.50191C9.95949 7.44985 9.92334 7.38908 9.89997 7.32305C9.87659 7.25702 9.86645 7.18704 9.87013 7.11709C9.87381 7.04714 9.89123 6.9786 9.9214 6.91539Z" fill="#3B96FF"/>
</svg>
