<svg width="17" height="15" viewBox="0 0 17 15" fill="none" xmlns="http://www.w3.org/2000/svg">
<path fill-rule="evenodd" clip-rule="evenodd" d="M2.61914 0.96875C1.98925 0.96875 1.38516 1.21897 0.939762 1.66437C0.494363 2.10977 0.244141 2.71386 0.244141 3.34375V11.6562C0.244141 12.2861 0.494363 12.8902 0.939762 13.3356C1.38516 13.781 1.98925 14.0312 2.61914 14.0312H14.4941C15.124 14.0312 15.7281 13.781 16.1735 13.3356C16.6189 12.8902 16.8691 12.2861 16.8691 11.6562V3.34375C16.8691 2.71386 16.6189 2.10977 16.1735 1.66437C15.7281 1.21897 15.124 0.96875 14.4941 0.96875H2.61914ZM5.88477 3.34375C5.41235 3.34375 4.95928 3.53142 4.62523 3.86547C4.29118 4.19952 4.10352 4.65258 4.10352 5.125C4.10352 5.59742 4.29118 6.05048 4.62523 6.38453C4.95928 6.71858 5.41235 6.90625 5.88477 6.90625C6.35718 6.90625 6.81025 6.71858 7.1443 6.38453C7.47835 6.05048 7.66602 5.59742 7.66602 5.125C7.66602 4.65258 7.47835 4.19952 7.1443 3.86547C6.81025 3.53142 6.35718 3.34375 5.88477 3.34375ZM2.81864 10.2336C3.0492 9.60594 3.46684 9.06413 4.01517 8.68139C4.56349 8.29865 5.21607 8.09342 5.88477 8.09342C6.55346 8.09342 7.20604 8.29865 7.75436 8.68139C8.30269 9.06413 8.72034 9.60594 8.95089 10.2336C9.00024 10.3681 8.99929 10.5159 8.94822 10.6498C8.89715 10.7836 8.79941 10.8945 8.67302 10.962C7.81481 11.4191 6.85713 11.6576 5.88477 11.6562C4.9124 11.6576 3.95472 11.4191 3.09652 10.962C2.97012 10.8945 2.87238 10.7836 2.82131 10.6498C2.77025 10.5159 2.7693 10.3681 2.81864 10.2336ZM10.9316 4.53125C10.7742 4.53125 10.6231 4.59381 10.5118 4.70516C10.4004 4.81651 10.3379 4.96753 10.3379 5.125C10.3379 5.28247 10.4004 5.43349 10.5118 5.54484C10.6231 5.65619 10.7742 5.71875 10.9316 5.71875H13.9004C14.0579 5.71875 14.2089 5.65619 14.3202 5.54484C14.4316 5.43349 14.4941 5.28247 14.4941 5.125C14.4941 4.96753 14.4316 4.81651 14.3202 4.70516C14.2089 4.59381 14.0579 4.53125 13.9004 4.53125H10.9316ZM10.3379 7.5C10.3379 7.34253 10.4004 7.19151 10.5118 7.08016C10.6231 6.96881 10.7742 6.90625 10.9316 6.90625H13.9004C14.0579 6.90625 14.2089 6.96881 14.3202 7.08016C14.4316 7.19151 14.4941 7.34253 14.4941 7.5C14.4941 7.65747 14.4316 7.80849 14.3202 7.91984C14.2089 8.03119 14.0579 8.09375 13.9004 8.09375H10.9316C10.7742 8.09375 10.6231 8.03119 10.5118 7.91984C10.4004 7.80849 10.3379 7.65747 10.3379 7.5ZM10.9316 9.28125C10.7742 9.28125 10.6231 9.34381 10.5118 9.45516C10.4004 9.56651 10.3379 9.71753 10.3379 9.875C10.3379 10.0325 10.4004 10.1835 10.5118 10.2948C10.6231 10.4062 10.7742 10.4688 10.9316 10.4688H13.9004C14.0579 10.4688 14.2089 10.4062 14.3202 10.2948C14.4316 10.1835 14.4941 10.0325 14.4941 9.875C14.4941 9.71753 14.4316 9.56651 14.3202 9.45516C14.2089 9.34381 14.0579 9.28125 13.9004 9.28125H10.9316Z" fill="#3B96FF"/>
</svg>
